<?xml version="1.0" encoding="iso-8859-1"?>
<!-- Generator: Adobe Illustrator 18.1.1, SVG Export Plug-In . SVG Version: 6.00 Build 0)  -->
<svg version="1.1" id="Capa_1" xmlns="http://www.w3.org/2000/svg" xmlns:xlink="http://www.w3.org/1999/xlink" x="0px" y="0px"
	 viewBox="0 0 57.376 57.376" style="enable-background:new 0 0 57.376 57.376;" xml:space="preserve">
<g>
	<g>
		<path style="fill:#030104;" d="M28.689,0C12.87,0,0.001,12.869,0.001,28.688c0,15.818,12.87,28.688,28.689,28.688
			c15.816,0,28.686-12.869,28.686-28.688S44.507,0,28.689,0z M28.689,54.375c-14.165,0-25.689-11.523-25.689-25.688
			c0-14.164,11.524-25.688,25.689-25.688c14.163,0,25.686,11.523,25.686,25.688S42.853,54.375,28.689,54.375z"/>
		<path style="fill:#030104;" d="M36.786,15.863H21.941c-0.553,0-1,0.447-1,1V39.97c0,0.554,0.447,1,1,1h3.532c0.553,0,1-0.446,1-1
			v-7.786c0-0.554,0.447-1,1-1h8.461c0.553,0,1-0.447,1-1v-3.107c0-0.553-0.447-1-1-1h-8.461c-0.553,0-1-0.447-1-1v-3.105
			c0-0.553,0.447-1,1-1h9.312c0.553,0,1-0.447,1-1v-3.107C37.786,16.311,37.339,15.863,36.786,15.863z"/>
	</g>
</g>
<g>
</g>
<g>
</g>
<g>
</g>
<g>
</g>
<g>
</g>
<g>
</g>
<g>
</g>
<g>
</g>
<g>
</g>
<g>
</g>
<g>
</g>
<g>
</g>
<g>
</g>
<g>
</g>
<g>
</g>
</svg>
