<?xml version="1.0" standalone="no"?>
<!DOCTYPE svg PUBLIC "-//W3C//DTD SVG 20010904//EN"
 "http://www.w3.org/TR/2001/REC-SVG-20010904/DTD/svg10.dtd">
<svg version="1.0" xmlns="http://www.w3.org/2000/svg"
 width="700.000000pt" height="700.000000pt" viewBox="0 0 700.000000 700.000000"
 preserveAspectRatio="xMidYMid meet">
<metadata>
Created by potrace 1.14, written by Peter Selinger 2001-2017
</metadata>
<g transform="translate(0.000000,700.000000) scale(0.100000,-0.100000)"
fill="#000000" stroke="none">
<path d="M3278 6995 c-1 -1 -42 -5 -89 -9 -47 -4 -95 -8 -105 -10 -10 -2 -46
-7 -79 -11 -59 -7 -79 -10 -125 -20 -34 -7 -69 -14 -105 -21 -63 -11 -235 -57
-340 -91 -436 -140 -847 -368 -1200 -667 -140 -118 -409 -398 -489 -509 -17
-23 -33 -44 -36 -47 -29 -26 -191 -274 -265 -405 -197 -353 -328 -724 -395
-1119 -22 -132 -25 -151 -37 -286 -15 -162 -8 -605 11 -707 2 -10 7 -43 10
-73 7 -62 12 -94 26 -165 6 -27 12 -59 14 -70 18 -96 67 -275 106 -390 205
-600 542 -1108 1015 -1526 86 -76 86 -77 190 -155 308 -234 680 -429 1035
-542 168 -53 243 -73 365 -98 135 -27 153 -30 224 -40 25 -3 57 -8 71 -10 167
-26 633 -25 848 2 83 10 293 47 347 61 33 8 68 16 77 18 43 9 183 51 285 86
351 121 657 284 958 509 152 114 216 169 344 294 83 81 121 122 252 270 61 70
289 385 289 400 0 2 19 35 42 72 222 366 405 910 453 1349 4 33 9 71 11 85 9
48 11 525 4 605 -16 162 -21 210 -25 225 -2 8 -7 35 -10 60 -40 285 -160 664
-303 960 -174 358 -387 657 -681 951 -169 168 -233 224 -391 341 -369 272
-754 457 -1195 573 -129 34 -234 56 -330 71 -27 4 -57 9 -65 10 -8 2 -44 6
-80 10 -36 3 -78 8 -95 11 -33 5 -531 13 -537 8z m447 -370 c44 -4 99 -8 121
-10 46 -4 78 -8 209 -31 877 -150 1689 -717 2147 -1499 86 -148 201 -386 228
-474 5 -14 20 -57 34 -96 26 -70 100 -339 111 -405 3 -19 8 -42 10 -50 2 -8 7
-40 10 -70 4 -30 8 -57 10 -60 2 -3 6 -41 10 -85 4 -44 9 -98 11 -120 6 -65 6
-406 0 -450 -3 -22 -8 -74 -12 -115 -3 -41 -8 -84 -10 -95 -2 -11 -7 -40 -10
-65 -3 -25 -8 -47 -9 -50 -2 -3 -6 -24 -10 -47 -10 -69 -62 -272 -95 -371
-202 -611 -585 -1147 -1097 -1535 -83 -63 -285 -197 -297 -197 -5 0 -17 -6
-25 -14 -43 -38 -328 -173 -488 -230 -213 -76 -478 -141 -658 -162 -33 -3 -68
-8 -79 -10 -41 -7 -228 -17 -346 -17 -178 0 -345 14 -510 43 -30 5 -70 12 -88
15 -18 3 -95 21 -170 41 -922 236 -1685 879 -2082 1755 -63 140 -146 375 -176
498 -21 90 -44 200 -54 261 -7 41 -14 82 -15 90 -2 8 -6 49 -10 90 -4 41 -9
93 -11 115 -7 55 -7 412 0 461 3 21 8 68 11 104 36 388 185 849 391 1207 49
84 152 247 177 278 4 6 28 37 53 69 223 294 498 548 809 747 39 25 77 48 85
52 8 4 38 21 65 37 298 178 766 335 1120 376 28 3 61 7 75 10 14 2 77 7 140
10 63 4 116 7 117 8 5 4 235 -3 308 -9z"/>
<path d="M2626 5050 c-16 -8 -39 -28 -50 -43 l-21 -28 0 -1436 c-1 -1313 1
-1439 16 -1473 29 -65 52 -70 325 -69 263 1 279 4 314 62 19 31 20 54 20 537
0 487 1 506 20 538 11 18 32 38 48 44 19 8 190 12 573 12 502 1 547 3 572 19
59 39 62 51 63 290 0 246 -4 265 -67 299 -31 17 -70 18 -572 18 -600 0 -590
-1 -622 66 -14 29 -16 68 -13 260 l3 226 37 34 c21 19 48 34 60 34 13 1 286 1
608 1 567 1 585 1 612 21 54 38 58 58 58 288 0 237 -6 267 -62 296 -31 17 -93
18 -963 19 -809 0 -934 -2 -959 -15z"/>
</g>
</svg>
